<?xml version="1.0" encoding="UTF-8" standalone="no"?><!-- Generator: Gravit.io --><svg xmlns="http://www.w3.org/2000/svg" xmlns:xlink="http://www.w3.org/1999/xlink" style="isolation:isolate" viewBox="0 0 187.333 70.5" width="187.333pt" height="70.5pt"><defs><clipPath id="_clipPath_d6Usjpw1eFRiaO8WbsKv7BDLjoWLyuiQ"><rect width="187.333" height="70.5"/></clipPath></defs><g clip-path="url(#_clipPath_d6Usjpw1eFRiaO8WbsKv7BDLjoWLyuiQ)"><clipPath id="_clipPath_q9hdlXb5ACDdI48EAJqKCSD9TDC71Cpr"><path d=" M 86.727 0 L 91.977 0 L 91.977 70.5 L 86.727 70.5 L 86.727 0 Z " fill="rgb(255,255,255)"/></clipPath><g clip-path="url(#_clipPath_q9hdlXb5ACDdI48EAJqKCSD9TDC71Cpr)"><g><path d=" M 91.977 0.129 L 86.727 0.129 L 86.727 70.375 L 91.977 70.375 L 91.977 0.129 Z " fill="rgb(35,48,73)"/></g></g><g><path d=" M 104.902 33.38 C 103.223 33.38 101.918 33.923 100.98 35.005 C 100.051 36.079 99.59 37.552 99.59 39.427 C 99.59 41.282 100.074 42.778 101.043 43.911 C 102.012 45.036 103.324 45.599 104.98 45.599 C 107.105 45.599 108.699 44.548 109.762 42.443 L 111.434 43.286 C 110.809 44.591 109.934 45.583 108.809 46.271 C 107.684 46.95 106.375 47.286 104.887 47.286 C 103.355 47.286 102.031 46.97 100.918 46.333 C 99.812 45.7 98.969 44.794 98.387 43.614 C 97.801 42.439 97.512 41.044 97.512 39.427 C 97.512 37.013 98.16 35.122 99.465 33.755 C 100.766 32.392 102.566 31.708 104.871 31.708 C 106.484 31.708 107.828 32.028 108.902 32.661 C 109.984 33.286 110.781 34.22 111.293 35.458 L 109.355 36.099 C 109 35.216 108.434 34.544 107.652 34.083 C 106.879 33.614 105.965 33.38 104.902 33.38 Z " fill="rgb(0,0,0)"/></g><g><path d=" M 124.803 47.068 L 123.084 42.646 L 116.178 42.646 L 114.443 47.068 L 112.318 47.068 L 118.49 31.927 L 120.818 31.927 L 126.897 47.068 L 124.803 47.068 Z  M 119.631 33.474 L 119.537 33.786 C 119.358 34.38 119.092 35.142 118.74 36.068 L 116.803 41.036 L 122.459 41.036 L 120.522 36.052 C 120.322 35.552 120.123 34.989 119.928 34.364 L 119.631 33.474 Z " fill-rule="evenodd" fill="rgb(0,0,0)"/></g><g><path d=" M 140.458 36.489 C 140.458 37.919 139.99 39.06 139.052 39.911 C 138.115 40.755 136.841 41.177 135.24 41.177 L 130.802 41.177 L 130.802 47.068 L 128.755 47.068 L 128.755 31.927 L 135.115 31.927 C 136.81 31.927 138.123 32.329 139.052 33.13 C 139.99 33.923 140.458 35.044 140.458 36.489 Z  M 138.396 36.505 C 138.396 34.548 137.216 33.568 134.865 33.568 L 130.802 33.568 L 130.802 39.552 L 134.958 39.552 C 137.248 39.552 138.396 38.536 138.396 36.505 Z " fill-rule="evenodd" fill="rgb(0,0,0)"/></g><g><path d=" M 143.645 47.068 L 143.645 31.927 L 145.692 31.927 L 145.692 47.068 L 143.645 47.068 Z " fill="rgb(0,0,0)"/></g><g><path d=" M 155.46 33.614 L 155.46 47.068 L 153.413 47.068 L 153.413 33.614 L 148.225 33.614 L 148.225 31.927 L 160.663 31.927 L 160.663 33.614 L 155.46 33.614 Z " fill="rgb(0,0,0)"/></g><g><path d=" M 173.693 47.068 L 171.974 42.646 L 165.068 42.646 L 163.333 47.068 L 161.208 47.068 L 167.38 31.927 L 169.708 31.927 L 175.786 47.068 L 173.693 47.068 Z  M 168.521 33.474 L 168.427 33.786 C 168.247 34.38 167.982 35.142 167.63 36.068 L 165.693 41.036 L 171.349 41.036 L 169.411 36.052 C 169.212 35.552 169.013 34.989 168.818 34.364 L 168.521 33.474 Z " fill-rule="evenodd" fill="rgb(0,0,0)"/></g><g><path d=" M 177.645 47.068 L 177.645 31.927 L 179.692 31.927 L 179.692 45.396 L 187.333 45.396 L 187.333 47.068 L 177.645 47.068 Z " fill="rgb(0,0,0)"/></g><g><path d=" M 38.85 47.068 L 38.85 31.927 L 40.897 31.927 L 40.897 45.396 L 48.538 45.396 L 48.538 47.068 L 38.85 47.068 Z " fill="rgb(0,0,0)"/></g><g><path d=" M 57.13 47.286 C 55.888 47.286 54.806 47.064 53.88 46.614 C 52.95 46.157 52.232 45.501 51.724 44.646 C 51.224 43.782 50.974 42.755 50.974 41.568 L 50.974 31.927 L 53.021 31.927 L 53.021 41.396 C 53.021 42.782 53.368 43.833 54.068 44.552 C 54.775 45.263 55.79 45.614 57.115 45.614 C 58.478 45.614 59.536 45.247 60.286 44.505 C 61.044 43.767 61.427 42.685 61.427 41.255 L 61.427 31.927 L 63.458 31.927 L 63.458 41.38 C 63.458 42.599 63.197 43.657 62.677 44.552 C 62.165 45.439 61.431 46.114 60.474 46.583 C 59.525 47.052 58.411 47.286 57.13 47.286 Z " fill="rgb(0,0,0)"/></g><g><path d=" M 66.968 47.068 L 66.968 31.927 L 78.437 31.927 L 78.437 33.614 L 69.015 33.614 L 69.015 38.458 L 77.796 38.458 L 77.796 40.114 L 69.015 40.114 L 69.015 45.396 L 78.89 45.396 L 78.89 47.068 L 66.968 47.068 Z " fill="rgb(0,0,0)"/></g><clipPath id="_clipPath_hvxNPxTCd10HxFz9rT60VYieD0wRBWsz"><path d=" M 0 7.699 L 34.5 7.699 L 34.5 52.699 L 0 52.699 L 0 7.699 Z " fill="rgb(255,255,255)"/></clipPath><g clip-path="url(#_clipPath_hvxNPxTCd10HxFz9rT60VYieD0wRBWsz)"><g><path d=" M 27.004 28.746 C 30.219 26.984 32.43 23.359 32.43 19.441 C 32.43 12.199 27.133 7.703 18.605 7.703 L 1.016 7.703 C 0.453 7.703 0 8.164 0 8.727 L 0 51.668 C 0 52.234 0.453 52.691 1.016 52.691 L 19.016 52.691 C 28.566 52.691 34.5 47.625 34.5 39.469 C 34.5 34.371 31.574 30.316 27.004 28.746 Z  M 9.133 14.863 L 16.23 14.863 C 20.719 14.863 23.34 17.121 23.34 20.996 C 23.34 24.965 20.547 27.129 15.281 27.129 L 9.133 27.129 L 9.133 14.863 Z  M 16.875 45.535 L 9.133 45.535 L 9.133 33.266 L 16.582 33.266 C 22.332 33.266 25.367 35.359 25.367 39.332 C 25.367 43.383 22.422 45.535 16.875 45.535 Z " fill="rgb(35,48,73)"/></g></g></g></svg>