<?xml version="1.0" standalone="no"?>
<!DOCTYPE svg PUBLIC "-//W3C//DTD SVG 20010904//EN"
 "http://www.w3.org/TR/2001/REC-SVG-20010904/DTD/svg10.dtd">
<svg version="1.0" xmlns="http://www.w3.org/2000/svg"
 width="512.000000pt" height="512.000000pt" viewBox="0 0 512.000000 512.000000"
 preserveAspectRatio="xMidYMid meet">
<metadata>
Created by potrace 1.11, written by Peter Selinger 2001-2013
</metadata>
<g transform="translate(0.000000,512.000000) scale(0.100000,-0.100000)"
fill="#000000" stroke="none">
<path d="M4346 4812 c-2 -2 -10 -5 -18 -6 -7 -1 -23 -7 -34 -14 -12 -6 -24 -9
-27 -5 -3 3 -47 -35 -97 -85 -56 -56 -96 -89 -107 -87 -10 1 -22 0 -28 -4 -5
-3 -13 -6 -17 -7 -5 -1 -10 -3 -13 -4 -3 -1 -8 -3 -12 -4 -30 -5 -126 -72
-152 -105 -18 -23 -37 -41 -43 -41 -6 0 -28 20 -50 45 -60 68 -101 86 -199 87
-98 1 -195 -80 -248 -207 -18 -43 -33 -87 -34 -98 -1 -11 -22 -32 -53 -52 -28
-18 -65 -51 -80 -72 -16 -21 -33 -41 -39 -45 -5 -4 -30 12 -55 36 -47 45 -121
97 -155 110 -11 4 -20 7 -20 6 0 0 -20 5 -45 13 -25 7 -54 12 -65 11 -51 -5
-93 -17 -130 -38 l-41 -22 -44 25 c-62 34 -138 62 -182 66 -20 2 -41 6 -47 9
-5 4 -12 2 -15 -2 -3 -5 -18 -10 -33 -10 -58 -3 -97 -17 -152 -55 -30 -21 -59
-32 -90 -33 -42 -3 -48 0 -100 51 -71 69 -169 145 -188 145 -8 0 -28 7 -45 16
-32 17 -93 21 -138 9 -14 -3 -29 -7 -35 -9 -42 -10 -123 -80 -151 -131 -17
-32 -19 -32 -78 -31 -59 2 -135 -7 -166 -21 -31 -13 -44 -11 -94 12 -47 23
-98 37 -121 36 -22 -1 -90 -10 -92 -12 -2 -1 -6 -2 -10 -3 -5 -1 -25 -12 -47
-25 -22 -14 -52 -24 -70 -23 -91 5 -124 4 -151 -2 -16 -4 -35 -8 -40 -9 -6 -2
-25 -13 -42 -25 -17 -12 -34 -22 -37 -22 -8 0 -67 -66 -81 -91 -54 -95 -76
-136 -86 -167 -6 -21 -16 -43 -22 -49 -5 -7 -7 -13 -3 -13 4 0 -2 -17 -13 -39
-11 -21 -18 -41 -15 -44 3 -3 2 -12 -2 -19 -5 -7 -9 -17 -11 -23 -1 -5 -4 -21
-7 -34 -3 -13 -10 -38 -16 -56 -10 -31 -13 -43 -26 -110 -9 -44 -12 -60 -14
-60 -1 0 -3 -10 -6 -22 -2 -13 -6 -33 -8 -45 -3 -13 -5 -23 -6 -23 -2 0 -9
-57 -14 -115 -2 -25 -4 -45 -6 -45 -2 0 -6 -45 -15 -170 -7 -93 -7 -477 0
-540 3 -27 8 -68 10 -90 3 -22 7 -58 9 -80 3 -22 7 -50 10 -63 3 -12 9 -32 12
-45 3 -12 8 -33 10 -47 3 -14 7 -36 10 -50 3 -14 6 -32 8 -40 1 -9 5 -21 10
-28 4 -6 5 -12 1 -12 -3 0 1 -16 9 -35 8 -19 12 -35 9 -35 -3 0 0 -7 7 -15 7
-8 9 -15 4 -15 -4 0 -3 -5 4 -12 7 -7 12 -22 12 -33 0 -12 3 -25 7 -29 10 -9
13 -30 19 -121 8 -117 12 -170 14 -170 1 0 3 -11 5 -25 2 -14 6 -36 10 -50 4
-14 8 -32 9 -40 2 -8 9 -35 16 -60 17 -56 18 -60 24 -86 2 -12 9 -30 15 -40 5
-11 18 -37 27 -59 72 -165 240 -323 374 -351 89 -19 197 -19 226 -1 6 3 22 8
37 11 26 5 141 59 164 77 7 7 14 6 18 -1 11 -17 176 -96 220 -105 22 -5 47
-10 55 -12 8 -2 48 -5 88 -5 l73 -2 40 -47 c38 -46 126 -99 179 -107 29 -4
133 -4 170 1 14 2 40 11 57 20 18 10 36 18 40 18 5 1 13 4 20 6 6 2 33 -6 60
-18 26 -12 49 -21 51 -20 1 1 16 -6 32 -14 17 -9 30 -13 30 -10 0 3 8 1 18 -4
9 -5 33 -12 52 -15 19 -3 46 -8 60 -12 33 -8 272 -13 285 -5 6 3 21 7 35 7 14
1 25 3 25 4 0 2 28 9 55 14 8 2 22 6 30 9 8 2 38 13 65 22 65 23 200 90 245
123 19 14 53 43 75 64 l40 38 65 -61 c69 -64 177 -139 235 -164 20 -8 36 -14
38 -13 1 0 21 -9 43 -20 23 -12 44 -19 47 -16 3 3 15 0 28 -6 48 -26 257 -29
357 -5 12 3 32 8 45 11 12 3 29 7 37 9 8 2 16 4 18 5 1 2 5 3 10 4 4 1 29 12
56 24 27 12 51 22 53 22 23 0 187 131 266 213 93 96 120 116 132 96 4 -5 13
-5 23 1 9 5 33 11 53 15 51 8 129 99 143 168 3 12 8 33 11 47 3 14 7 36 10 50
4 23 12 59 19 85 1 6 10 27 19 48 36 80 46 104 57 147 15 58 21 80 24 105 2
11 4 20 6 20 11 0 21 473 9 480 -4 3 -5 64 -3 137 3 73 4 169 4 213 0 84 -3
116 -24 285 -3 19 -12 58 -21 85 -8 28 -15 51 -15 53 0 1 0 3 -1 5 0 1 -2 9
-4 17 -2 8 -7 26 -10 40 -4 14 -8 34 -10 45 -2 11 -4 21 -5 23 -2 1 -3 5 -4
10 -1 4 -12 39 -24 77 -12 39 -24 79 -26 90 -3 11 -11 39 -20 63 -8 23 -13 42
-11 42 3 0 -4 16 -15 36 -11 19 -22 43 -24 52 -1 9 -6 24 -9 32 -4 8 -16 42
-27 75 -22 61 -26 73 -53 135 -8 19 -18 46 -22 60 -4 14 -22 45 -39 70 -28 39
-31 50 -24 80 14 57 28 144 31 195 1 17 5 35 7 40 8 14 5 289 -3 301 -3 6 -5
21 -2 32 2 12 0 24 -4 27 -7 4 -15 31 -25 85 -1 3 -12 27 -26 54 -32 67 -108
138 -165 155 -43 13 -132 21 -139 13z"/>
</g>
</svg>
